<svg width="36" height="22" viewBox="0 0 36 22" fill="none" xmlns="http://www.w3.org/2000/svg">
<path d="M28.1739 18.8266V21.957H9.3913V18.8266C9.3913 18.8266 9.3913 12.5657 18.7826 12.5657C28.1739 12.5657 28.1739 18.8266 28.1739 18.8266ZM23.4783 4.7396C23.4783 3.81089 23.2029 2.90303 22.6869 2.13083C22.1709 1.35864 21.4376 0.756786 20.5796 0.401383C19.7215 0.0459799 18.7774 -0.0470097 17.8665 0.134173C16.9557 0.315356 16.119 0.762573 15.4623 1.41927C14.8056 2.07597 14.3584 2.91266 14.1772 3.82352C13.996 4.73439 14.089 5.67853 14.4444 6.53655C14.7998 7.39457 15.4016 8.12793 16.1738 8.64389C16.946 9.15986 17.8539 9.43525 18.7826 9.43525C20.028 9.43525 21.2223 8.94053 22.1029 8.05993C22.9835 7.17932 23.4783 5.98496 23.4783 4.7396ZM28.487 12.6596C29.3426 13.4489 30.0323 14.4008 30.5161 15.4596C30.9998 16.5185 31.2678 17.663 31.3043 18.8266V21.957H36V18.8266C36 18.8266 36 13.4266 28.487 12.6596ZM26.6087 0.0439471C26.1358 0.0442301 25.6658 0.118159 25.2157 0.263077C26.1314 1.57625 26.6224 3.13867 26.6224 4.7396C26.6224 6.34053 26.1314 7.90295 25.2157 9.21612C25.6658 9.36104 26.1358 9.43497 26.6087 9.43525C27.8541 9.43525 29.0484 8.94053 29.929 8.05993C30.8096 7.17932 31.3043 5.98496 31.3043 4.7396C31.3043 3.49424 30.8096 2.29988 29.929 1.41927C29.0484 0.538666 27.8541 0.0439471 26.6087 0.0439471ZM9.92348 6.1796L11.7391 8.38656L4.30435 15.8213L0 11.1257L1.81565 9.31003L4.30435 11.7831L9.92348 6.1796Z" fill="#F8F8F8"/>
</svg>
